<?xml version="1.0" encoding="utf-8"?>
<!-- Generator: Adobe Illustrator 26.5.2, SVG Export Plug-In . SVG Version: 6.00 Build 0)  -->
<svg version="1.1" id="Layer_1" xmlns="http://www.w3.org/2000/svg" xmlns:xlink="http://www.w3.org/1999/xlink" x="0px" y="0px"
	 viewBox="0 0 343 177.9" style="enable-background:new 0 0 343 177.9;" xml:space="preserve">

   <?xml version="1.0" encoding="utf-8"?>

<g>
	<polygon class="st0" points="110.5,36.5 110.5,27.3 102,27.3 102,18.9 92.9,18.9 92.9,27.4 84.5,27.4 84.5,36.5 92.9,36.
<style type="text/css">
	.st0{fill:#F3C846;}
	.st1{fill:#E08349;}
	.st2{fill:#4191CD;}
	.st3{fill:#D93978;}
	.st4{fill:#55A27D;}
	.st5{opacity:0.5;}
	.st6{fill:#5B539E;}
	.st7{fill:#5A59A2;}
	.st8{fill:#FFFFFF;}
</style>
<g>
	<polygon class="st0" points="110.5,36.5 110.5,27.3 102,27.3 102,18.9 92.9,18.9 92.9,27.4 84.5,27.4 84.5,36.5 92.9,36.5 
		92.9,44.9 102.1,44.9 102.1,36.5 	"/>
	<path class="st1" d="M39.8,102.4c-6.3,0-11.4-5.1-11.4-11.4s5.1-11.4,11.4-11.4S51.2,84.7,51.2,91S46.1,102.4,39.8,102.4z
		 M39.8,86.2c-2.6,0-4.8,2.1-4.8,4.8s2.1,4.8,4.8,4.8s4.8-2.1,4.8-4.8S42.4,86.2,39.8,86.2z"/>
	<polygon class="st2" points="193.8,159 199.2,153.6 194.2,148.7 199.1,143.8 193.8,138.4 188.9,143.3 183.9,138.4 178.6,143.8 
	<polygon class="st3" points="197.7,42.3 199.5,65.3 218.6,52.3 	"/>
	<path class="st4" d="M283,65.2c-6.3,0-11.4-5.1-11.4-11.4s5.1-11.4,11.4-11.4s11.4,5.1,11.4,11.4S289.2,65.2,283,65.2z M283,49.1
		c-2.6,0-4.8,2.1-4.8,4.8s2.1,4.8,4.8,4.8s4.8-2.1,4.8-4.8S285.6,49.1,283,49.1z"/>
	<g class="st5">
		<path class="st6" d="M88,144.6c-2.8,0-5.5-1-7.6-2.9c-1.3-1.2-3.1-1.9-4.9-1.9s-3.6,0.7-4.9,1.9c-0.8,0.7-2,0.6-2.7-0.1
			c-0.7-0.8-0.7-2,0.1-2.7c2-1.9,4.7-2.9,7.6-2.9s5.5,1,7.6,2.9c1.3,1.2,3.1,1.9,4.9,1.9s3.6-0.7,4.9-1.9c2-1.9,4.7-2.9,7.6-2.9
			s5.5,1,7.6,2.9c1.3,1.2,3.1,1.9,4.9,1.9s3.6-0.7,4.9-1.9c2-1.9,4.7-2.9,7.6-2.9s5.5,1,7.6,2.9c0.8,0.7,0.8,2,0.1,2.7
			c-0.7,0.8-2,0.8-2.7,0.1c-1.3-1.2-3.1-1.9-4.9-1.9s-3.6,0.7-4.9,1.9c-2,1.9-4.7,2.9-7.6,2.9s-5.5-1-7.6-2.9
			c-1.3-1.2-3.1-1.9-4.9-1.9s-3.6,0.7-4.9,1.9C93.6,143.6,90.9,144.6,88,144.6L88,144.6z"/>
	</g>
	<g class="st5">
		<path class="st7" d="M263.4,143.6L263.4,143.6c-1-0.8-1-2-0.1-2.8l5.8-4.8c0.3-0.2,0.3-0.6,0-0.8l-5.8-4.6c-1-0.8-1-2,0-2.8l0,0
			c1-0.8,2.5-0.8,3.4,0l8,6.4c0.9,0.7,0.9,1.9,0,2.6l-8,6.6C265.9,144.3,264.4,144.3,263.4,143.6L263.4,143.6z"/>
		<path class="st7" d="M276.9,143.6L276.9,143.6c-1-0.8-1-2-0.1-2.8l5.8-4.8c0.3-0.2,0.3-0.6,0-0.8l-5.8-4.6c-1-0.8-1-2,0-2.8l0,0
			c1-0.8,2.5-0.8,3.4,0l8,6.4c0.9,0.7,0.9,1.9,0,2.6l-8,6.6C279.4,144.3,277.9,144.3,276.9,143.6L276.9,143.6z"/>
		<path class="st7" d="M289.8,143.6L289.8,143.6c-1-0.8-1-2-0.1-2.8l5.8-4.8c0.3-0.2,0.3-0.6,0-0.8l-5.8-4.6c-1-0.8-1-2,0-2.8l0,0
			c1-0.8,2.5-0.8,3.4,0l8,6.4c0.9,0.7,0.9,1.9,0,2.6l-8,6.6C292.3,144.3,290.8,144.3,289.8,143.6L289.8,143.6z"/>
		<path class="st7" d="M303.3,143.6L303.3,143.6c-1-0.8-1-2-0.1-2.8l5.8-4.8c0.3-0.2,0.3-0.6,0-0.8l-5.8-4.6c-1-0.8-1-2,0-2.8l0,0
			c1-0.8,2.5-0.8,3.4,0l8,6.4c0.9,0.7,0.9,1.9,0,2.6l-8,6.6C305.8,144.3,304.3,144.3,303.3,143.6L303.3,143.6z"/>
	</g>
</g>
<g>
	<path class="st8" d="M129.1,125.4h-13.6V97H88.9v28.4H75.2V59.2h13.6V86h26.6V59.2h13.6V125.4L129.1,125.4z"/>
	<path class="st8" d="M151.4,76.2l0.4,5.7c1.7-2.1,3.7-3.8,6.1-4.9c2.4-1.1,5.1-1.7,8-1.7c2.3,0,4.5,0.3,6.4,1
		c1.9,0.7,3.6,1.7,4.9,3.2c1.4,1.5,2.4,3.4,3.2,5.8c0.7,2.4,1.1,5.3,1.1,8.8v31.3h-13.1V94c0-1.6-0.2-2.9-0.5-3.9
		c-0.4-1-0.9-1.8-1.5-2.4c-0.7-0.6-1.5-1-2.4-1.3c-1-0.3-2.1-0.4-3.4-0.4c-1.9,0-3.6,0.4-5,1.3c-1.4,0.8-2.5,2-3.3,3.4v34.7H139
		V76.2L151.4,76.2L151.4,76.2z"/>
	<path class="st8" d="M217.8,88.5c-0.7-0.1-1.4-0.2-2.3-0.2s-1.7-0.1-2.4-0.1c-2.6,0-4.7,0.4-6.2,1.3c-1.6,0.9-2.8,2.1-3.5,3.8v32.2
		h-13.1V76.2h12.4l0.4,5.9c1.2-2.1,2.8-3.8,4.6-5c1.8-1.2,3.9-1.8,6.4-1.8c0.7,0,1.4,0.1,2.2,0.2c0.8,0.1,1.4,0.3,1.9,0.4
		L217.8,88.5L217.8,88.5z"/>
	<path class="st8" d="M243.6,106.8l9.1-30.6h14.1l-19.7,56.6c-0.5,1.2-1,2.6-1.8,4.1c-0.7,1.4-1.7,2.8-2.9,4.1
		c-1.2,1.3-2.7,2.3-4.5,3.1c-1.8,0.8-4,1.2-6.6,1.2c-0.6,0-1.1,0-1.6-0.1c-0.5-0.1-1-0.1-1.4-0.2s-0.9-0.1-1.3-0.2s-0.9-0.2-1.4-0.4
		v-10c0.3,0,0.7,0,1,0s0.7,0,1,0c1.3,0,2.4-0.1,3.3-0.3c0.9-0.2,1.7-0.5,2.4-0.9c0.7-0.4,1.2-1,1.7-1.7s0.9-1.4,1.2-2.4l1.4-3.7
		l-17.2-49.3h14.1C234.5,76.2,243.6,106.8,243.6,106.8z"/>
</g>
</svg>
