<svg width="800" height="600" xmlns="http://www.w3.org/2000/svg">

 <g>
  <title>Layer 1</title>
  <path transform="rotate(-179.918 403.131 385.414)" stroke="#000" id="svg_5" d="m-3.9149,454.06476l23.36753,23.5907l20.16286,20.87836c3.81292,3.43282 17.43586,17.98693 24.73941,23.72407c7.30355,5.73714 21.35476,12.00971 29.97827,15.0703c8.62351,3.06059 20.89297,7.9788 64.58648,-3.09916c43.69352,-11.07795 32.48773,-8.98675 75.26276,-28.4747c42.77503,-19.48794 40.01526,-16.85932 40.01526,-16.85933c0,0 41.14245,-9.6339 41.14245,-9.6339c0,0 7.4135,-0.30878 25.36179,0.80283c17.94828,1.1116 29.87055,7.22543 29.87055,7.22543c0,0 18.38194,6.54617 39.45167,24.88758c21.06973,18.34141 18.12473,18.8228 24.79819,25.6904c6.67346,6.8676 18.03505,17.66215 18.03505,17.66215c0,0 27.05257,26.49323 27.05257,26.49323c0,0 25.92538,21.67628 25.92538,21.67628c0,0 27.61617,16.0565 27.61617,16.0565c0,0 16.90786,7.22543 16.90786,7.22543c0,0 20.28943,5.61978 20.28943,5.61978c0,0 22.3335,2.1805 31.56133,0c9.22783,-2.18049 38.88807,-13.64803 38.88807,-13.64803c0,0 36.0701,-17.66215 36.07009,-17.66215c0,0 36.0701,-24.08475 36.07009,-24.08475c0,0 39.45167,-33.71865 39.45167,-33.71865c0,0 19.72584,-20.87345 19.72583,-20.87345c0,0 37.76088,-40.14125 37.76088,-40.14125c0,0 0,-345.21476 0,-345.21476c0,0 -810.44994,0.80283 -810.44994,0.80283c0,0 2.55689,355.34169 -3.64169,316.00429z" opacity="NaN" fill="#fff"/>
 </g>
</svg>